PathFileType	4	(X/Y/Z)	Patient4_TMGait_0pt3_03_left_12.trc.trc
DataRate	CameraRate	NumFrames	NumMarkers	Units	OrigDataRate	OrigDataStartFrame	OrigNumFrames
52.044609665427	52.044609665427	4	33	mm	52.044609665427	1	       141
Frame#	Time	Sacral			L.Shoulder			Chest			R.Shoulder			Neck			R.ASIS			L.ASIS			R.Thigh.Superior			R.Thigh.Lateral			R.Thigh.Inferior			R.Patella			L.Thigh.Superior			L.Thigh.Lateral			L.Thigh.Inferior			L.Patella			L.Shank.Superior			L.Shank.Lateral			L.Shank.Inferior			R.Shank.Superior			R.Shank.Lateral			R.Shank.Inferior			R.Heel			R.Midfoot.Superior			R.Midfoot.Lateral			R.Toe			L.Heel			L.Midfoot.Lateral			L.Midfoot.Superior			L.Toe			L.Elbow			L.Wrist			R.Elbow			R.Wrist			
		X1	Y1	Z1	X2	Y2	Z2	X3	Y3	Z3	X4	Y4	Z4	X5	Y5	Z5	X6	Y6	Z6	X7	Y7	Z7	X8	Y8	Z8	X9	Y9	Z9	X10	Y10	Z10	X11	Y11	Z11	X12	Y12	Z12	X13	Y13	Z13	X14	Y14	Z14	X15	Y15	Z15	X16	Y16	Z16	X17	Y17	Z17	X18	Y18	Z18	X19	Y19	Z19	X20	Y20	Z20	X21	Y21	Z21	X22	Y22	Z22	X23	Y23	Z23	X24	Y24	Z24	X25	Y25	Z25	X26	Y26	Z26	X27	Y27	Z27	X28	Y28	Z28	X29	Y29	Z29	X30	Y30	Z30	X31	Y31	Z31	X32	Y32	Z32	X33	Y33	Z33	

1	21.740000000000	814.203604287588	1003.913148184870	552.237499925197	1035.895817107380	1423.869150609987	382.793736726665	1120.942776105884	1347.899590454494	550.136241881187	1030.591020906194	1426.877574125707	717.741288739869	1008.029661556316	1485.140964963804	540.799423308490	1040.092876463607	929.124902414492	676.553683814086	1033.927071987295	953.351327780526	403.280510065193	1093.062268629146	737.303340598016	633.692470312950	1016.688437392776	619.492314368478	683.249263465152	1097.491899544441	575.894820550303	600.066106835572	1103.578215857502	481.732731722857	602.132997199311	1100.241432751636	757.489579357951	432.851586747872	1046.636009326554	634.873976250341	352.666471726809	1140.542783882676	563.286114043845	421.555750249880	1142.766332619094	472.262818172282	411.547742971044	1068.209795012984	415.186548722893	398.365768069806	924.758138109418	392.402638885558	343.734542111617	893.926710788564	263.744225055981	391.267977650417	1061.974280519918	394.507176557081	605.441825013941	980.592530429808	296.956125552134	664.680871600220	1008.605297536825	200.888702757886	596.847256314281	857.295061316200	45.341738180505	565.176476684743	1027.749630664855	94.318773448133	598.720398860134	940.182812852866	38.080037241217	639.871390305098	1148.346045257201	42.334701454127	630.744624099161	696.861869173432	226.510983777425	421.594950493139	748.920240773031	173.846114438387	341.664750607625	853.460661635356	163.060072734434	365.527737880539	912.474912167412	40.814648847890	335.667022343705	1039.764190198268	1072.501500104486	258.507368065755	1171.098762338138	844.740272263149	255.923793653041	946.412722637861	1093.140186214814	849.376466024223	1051.652687313912	855.283548818095	885.420303635122	
2	21.759214285714	812.739851892026	1001.611061220779	555.456359167468	1032.162677361083	1421.236027788049	382.911670878083	1119.244584090903	1346.020520361142	549.529273000101	1030.827096987910	1425.264377919381	718.046371441202	1006.468004650387	1483.217982755825	541.022731748266	1040.080382582606	927.418613919021	677.739205005000	1030.972028358363	951.610956772296	404.716361706999	1093.516633163344	735.899689330402	634.097305946789	1017.949325833411	617.646345915742	683.638263914281	1098.571583502471	574.449424425212	599.950953681440	1104.632198500524	479.590068169205	601.667947472517	1101.122582183077	759.108405668915	434.162574271930	1050.760792445800	636.070213778722	353.408664498643	1146.493750012053	566.714539412095	421.909824972980	1150.788124097202	475.465728866798	411.447780990867	1076.545768581288	417.082139435053	398.659673171069	932.488165331837	393.454681576803	345.441523397727	903.011373351094	264.425680997090	393.119217542101	1061.544196111910	392.625311798449	605.061597244887	978.952382152268	296.184236157323	664.607779777606	1005.013002399260	199.920001183378	596.571553170038	851.476535124815	45.623661330645	565.155651485165	1022.044048040362	94.285516068600	598.616469670883	934.344032934196	38.130286843687	639.795301223688	1142.532235804868	41.984874730137	630.843337498016	706.117725899228	224.721099132690	425.291623873635	758.256519513306	173.717782466630	344.339103174051	863.206215853552	164.424966865163	367.209079477368	923.820518982753	43.274334198919	335.426409051764	1026.330025313632	1068.961560751430	261.810741036521	1138.995420021627	834.449470744189	257.715276644285	955.200232319157	1090.173373161210	851.443984443518	1073.157911766825	859.631358039381	886.411506943201	
3	21.778428571429	811.271368426390	999.462172747715	558.683363192347	1028.330643490920	1418.755609318229	383.001968315740	1117.519824073546	1344.267777303391	548.839108333118	1031.108533041194	1423.761621452439	718.309125102156	1004.866630812707	1481.419974345200	541.230161435095	1040.045657027861	925.797140735021	678.833430944118	1027.965984023605	949.969137767376	406.074227236778	1093.801059110243	734.503996533320	634.443084031653	1018.956324947823	615.870451263242	684.008833617131	1099.330768325893	573.011940438391	599.798816342439	1105.303666503891	477.497576728456	601.175077387585	1101.815740767007	760.773015765639	435.314190521095	1054.545731234230	637.341162473655	353.991057227806	1152.105871147285	570.183788090692	422.024160260818	1158.478121469796	478.789475150706	411.098900739285	1084.742105664407	419.030233901746	398.670237552121	940.131258562049	394.026152981791	347.005987713076	912.628755291245	264.475973765550	394.636717069556	1060.775419753347	390.793715487014	604.667567933607	977.037459477959	295.425677201267	664.539234157266	1001.197002767514	198.976849703216	596.302168231252	845.503030842889	45.892111378056	565.137237336629	1016.178466448165	94.251375518891	598.525385776291	928.357659470578	38.179434070072	639.737819544814	1136.565927728151	41.650721795498	630.940326775646	716.245236629350	221.433530588942	428.831415571253	768.459054378350	172.397475242461	346.738380710491	873.824767766366	165.032625719803	368.480134916860	936.425578104927	45.347795971953	334.535121820157	1012.304803068911	1065.767417616940	264.993613892449	1106.372345061372	824.818928598044	259.749191110269	964.353048616627	1087.287071094323	853.337891715674	1095.432586818458	864.617740225011	887.011255916886	
4	21.797642857143	809.841026133164	997.630503094817	561.822109236145	1024.468452624165	1416.599427967164	383.048069828425	1115.815780361015	1342.767540529955	548.031144671649	1031.477805592799	1422.483132721158	718.489365665673	1003.265585747273	1479.878729791244	541.401623994317	1039.974110350149	924.364956461990	679.740914614468	1024.955769259562	948.546577573248	407.259209273230	1093.793432509600	733.168353281946	634.678383177544	1019.517753562091	614.269254978656	684.341408952302	1099.544727485664	571.637948561253	599.594358860964	1105.337595495329	475.558623178369	600.658855633871	1102.173576298244	762.461815695852	436.190588828258	1057.670207297552	638.688249228605	354.320969472698	1156.985098153106	573.598945875397	421.794550914409	1165.385218380075	482.197422358857	410.413121667673	1092.448300828770	421.010081243122	398.279520486395	947.456425855193	393.857933054104	348.267775966920	922.791362700919	263.628979812315	395.604274866998	1059.488546531026	389.108950711675	604.269667602178	974.742342889524	294.719422142273	664.484183953441	997.141065623359	198.109071043456	596.053703156541	839.469463507934	46.130923580219	565.129969312320	1010.245413807763	94.218525025042	598.459195544972	922.322871560293	38.223257861645	639.707783064432	1130.545556194886	41.350304288456	631.030911403791	727.454329701091	216.079735542099	431.949049811901	779.764274268059	169.392209790648	348.613936183002	885.505154536441	164.547380512371	369.107904361544	950.607219261271	46.854137259014	332.784417509167	997.843636631392	1063.226071438982	267.909664647283	1074.009259171345	816.501275958695	262.083640000902	973.793550371278	1084.638632700871	854.902706014422	1118.158163712125	870.517758339125	886.949023212364	
